<?xml version="1.0" standalone="no"?>
<!DOCTYPE svg PUBLIC "-//W3C//DTD SVG 20010904//EN"
 "http://www.w3.org/TR/2001/REC-SVG-20010904/DTD/svg10.dtd">
<svg version="1.0" xmlns="http://www.w3.org/2000/svg"
 width="270.000000pt" height="270.000000pt" viewBox="0 0 270.000000 270.000000"
 preserveAspectRatio="xMidYMid meet">
<metadata>
Jesus Donaciano Portfolio Logo
</metadata>
<g transform="translate(0.000000,270.000000) scale(0.100000,-0.100000)"
fill="#000000" stroke="none">
<rect width="2700" height="2700" fill="#000000"/>
<g fill="#ffffff" transform="translate(675,1350) scale(15,15)" stroke="#ffffff" stroke-width="0.2">
<path d="M6.74-4.46L6.74-14.22L10.16-14.22L10.16-4.46Q10.16-3.11 9.53-2.04Q8.90-0.98 7.77-0.39Q6.64 0.20 5.25 0.20L5.25 0.20Q2.93 0.20 1.64-0.98Q0.35-2.15 0.35-4.30L0.35-4.30L3.79-4.30Q3.79-3.32 4.13-2.88Q4.46-2.44 5.25-2.44L5.25-2.44Q5.97-2.44 6.35-2.97Q6.74-3.51 6.74-4.46L6.74-4.46ZM16.99 0L12.31 0L12.31-14.22L16.89-14.22Q18.78-14.22 20.28-13.36Q21.79-12.51 22.63-10.95Q23.48-9.39 23.49-7.46L23.49-7.46L23.49-6.81Q23.49-4.85 22.66-3.31Q21.84-1.76 20.34-0.88Q18.84-0.01 16.99 0L16.99 0ZM16.89-11.57L15.74-11.57L15.74-2.64L16.93-2.64Q18.41-2.64 19.20-3.69Q19.99-4.74 19.99-6.81L19.99-6.81L19.99-7.42Q19.99-9.48 19.20-10.53Q18.41-11.57 16.89-11.57L16.89-11.57Z"/>
</g>
</g>
</svg>
